<?xml version="1.0" encoding="UTF-8"?>
<!DOCTYPE svg PUBLIC "-//W3C//DTD SVG 1.1//EN" "http://www.w3.org/Graphics/SVG/1.1/DTD/svg11.dtd">
<svg xmlns="http://www.w3.org/2000/svg" version="1.1" width="157px" height="120px" style="shape-rendering:geometricPrecision; text-rendering:geometricPrecision; image-rendering:optimizeQuality; fill-rule:evenodd; clip-rule:evenodd" xmlns:xlink="http://www.w3.org/1999/xlink">
<g><path style="opacity:1" fill="#1e1e1e" d="M -0.5,-0.5 C 51.8333,-0.5 104.167,-0.5 156.5,-0.5C 156.5,39.5 156.5,79.5 156.5,119.5C 104.167,119.5 51.8333,119.5 -0.5,119.5C -0.5,79.5 -0.5,39.5 -0.5,-0.5 Z"/></g>
<g><path style="opacity:1" fill="#fefffe" d="M 28.5,15.5 C 46.5,15.5 64.5,15.5 82.5,15.5C 78.7553,46.8802 74.5886,78.2136 70,109.5C 52.2403,110.658 34.407,110.825 16.5,110C 19.7857,78.5498 23.7857,47.0498 28.5,15.5 Z"/></g>
<g><path style="opacity:1" fill="#1e1e1e" d="M 32.5,19.5 C 47.5,19.5 62.5,19.5 77.5,19.5C 73.5001,48.1657 69.5001,76.8324 65.5,105.5C 50.8333,105.5 36.1667,105.5 21.5,105.5C 25.3542,76.8544 29.0208,48.1878 32.5,19.5 Z"/></g>
<g><path style="opacity:1" fill="#fefffe" d="M 85.5,25.5 C 104.836,25.3334 124.17,25.5 143.5,26C 144.657,40.7587 144.823,55.5921 144,70.5C 136.137,78.6977 127.97,86.531 119.5,94C 105.5,94.6667 91.5,94.6667 77.5,94C 75.6063,92.9207 75.273,91.5874 76.5,90C 90.5,89.6667 104.5,89.3333 118.5,89C 125.877,81.9576 132.877,74.6242 139.5,67C 139.333,66.5 139.167,66 139,65.5C 133.167,71.3333 127.333,77.1667 121.5,83C 107.167,83.6667 92.8333,83.6667 78.5,83C 77.0745,81.2859 77.4078,79.9525 79.5,79C 92.8333,78.6667 106.167,78.3333 119.5,78C 126.544,71.2907 133.211,64.2907 139.5,57C 139.333,56.5 139.167,56 139,55.5C 132.886,61.2777 126.719,67.111 120.5,73C 106.833,73.6667 93.1667,73.6667 79.5,73C 78.0745,71.2859 78.4078,69.9525 80.5,69C 93.5,68.6667 106.5,68.3333 119.5,68C 126.365,61.4693 132.865,54.636 139,47.5C 139.667,46.5 139.667,45.5 139,44.5C 132.833,50.6667 126.667,56.8333 120.5,63C 107.5,63.6667 94.5,63.6667 81.5,63C 80.6198,61.6439 80.2865,60.1439 80.5,58.5C 93.1711,58.6666 105.838,58.4999 118.5,58C 125.877,50.9576 132.877,43.6242 139.5,36C 139.333,35.5 139.167,35 139,34.5C 133.167,40.3333 127.333,46.1667 121.5,52C 108.5,52.6667 95.5,52.6667 82.5,52C 81.1667,51 81.1667,50 82.5,49C 94.5,48.6667 106.5,48.3333 118.5,48C 124.167,42.3333 129.833,36.6667 135.5,31C 118.823,30.8329 102.157,30.3329 85.5,29.5C 84.1931,28.135 84.1931,26.8016 85.5,25.5 Z"/></g>
</svg>
